<svg xmlns="http://www.w3.org/2000/svg" xmlns:xlink="http://www.w3.org/1999/xlink" viewBox="0 0 652.56 223.29"><defs><style>.cls-1,.cls-10,.cls-11,.cls-12,.cls-13,.cls-14,.cls-15,.cls-16,.cls-17,.cls-18,.cls-19,.cls-2,.cls-20,.cls-21,.cls-22,.cls-23,.cls-24,.cls-25,.cls-26,.cls-27,.cls-28,.cls-29,.cls-3,.cls-30,.cls-33,.cls-34,.cls-35,.cls-36,.cls-4,.cls-5,.cls-6,.cls-7,.cls-8,.cls-9{fill-rule:evenodd;}.cls-1{fill:url(#radial-gradient);}.cls-2{fill:url(#linear-gradient);}.cls-3{fill:url(#linear-gradient-2);}.cls-4{fill:url(#linear-gradient-3);}.cls-5{fill:url(#linear-gradient-4);}.cls-6{fill:url(#linear-gradient-5);}.cls-7{fill:url(#linear-gradient-6);}.cls-8{fill:url(#linear-gradient-7);}.cls-9{fill:url(#linear-gradient-8);}.cls-10{fill:url(#linear-gradient-9);}.cls-11{fill:url(#linear-gradient-10);}.cls-12{fill:url(#linear-gradient-11);}.cls-13{fill:url(#linear-gradient-12);}.cls-14{fill:url(#linear-gradient-13);}.cls-15{fill:url(#linear-gradient-14);}.cls-16{fill:url(#linear-gradient-15);}.cls-17{fill:url(#linear-gradient-16);}.cls-18{fill:url(#linear-gradient-17);}.cls-19{fill:url(#linear-gradient-18);}.cls-20{fill:url(#linear-gradient-19);}.cls-21{fill:url(#linear-gradient-20);}.cls-22{fill:url(#linear-gradient-21);}.cls-23{fill:url(#linear-gradient-22);}.cls-24{fill:url(#linear-gradient-23);}.cls-25{fill:url(#linear-gradient-24);}.cls-26{fill:url(#linear-gradient-25);}.cls-27{fill:url(#linear-gradient-26);}.cls-28{fill:url(#linear-gradient-27);}.cls-29{fill:url(#linear-gradient-28);}.cls-30{fill:url(#linear-gradient-29);}.cls-31{fill:url(#linear-gradient-30);}.cls-32{fill:url(#linear-gradient-31);}.cls-33{fill:url(#linear-gradient-32);}.cls-34{fill:url(#linear-gradient-33);}.cls-35{fill:url(#linear-gradient-34);}.cls-36{fill:url(#linear-gradient-35);}.cls-37{fill:url(#linear-gradient-36);}</style><radialGradient id="radial-gradient" cx="308.83" cy="29.32" r="25" gradientTransform="matrix(-0.5, 0.87, -0.78, -0.45, 362.46, -231.16)" gradientUnits="userSpaceOnUse"><stop offset="0.16" stop-color="#fff"/><stop offset="0.17" stop-color="#fff"/><stop offset="0.19" stop-color="#fff"/><stop offset="0.68" stop-color="#231f20"/><stop offset="1" stop-color="#231f20"/></radialGradient><linearGradient id="linear-gradient" x1="214.81" y1="32.91" x2="198.52" y2="61.12" gradientUnits="userSpaceOnUse"><stop offset="0" stop-color="#77787b"/><stop offset="0.08" stop-color="#828386"/><stop offset="0.52" stop-color="#bcbec0"/><stop offset="0.59" stop-color="#cbccce"/><stop offset="0.75" stop-color="#e7e8e9"/><stop offset="0.9" stop-color="#f9f9f9"/><stop offset="1" stop-color="#fff"/></linearGradient><linearGradient id="linear-gradient-2" x1="211.07" y1="27.39" x2="199.82" y2="52.14" xlink:href="#linear-gradient"/><linearGradient id="linear-gradient-3" x1="213.65" y1="44.63" x2="205.6" y2="58.57" xlink:href="#linear-gradient"/><linearGradient id="linear-gradient-4" x1="194.52" y1="48.35" x2="199.59" y2="32.82" xlink:href="#linear-gradient"/><linearGradient id="linear-gradient-5" x1="212.73" y1="54.3" x2="216.73" y2="42.05" xlink:href="#linear-gradient"/><linearGradient id="linear-gradient-6" x1="216.05" y1="40.45" x2="207.55" y2="35.95" xlink:href="#linear-gradient"/><linearGradient id="linear-gradient-7" x1="194.75" y1="59.16" x2="209.75" y2="45.41" xlink:href="#linear-gradient"/><linearGradient id="linear-gradient-8" x1="230.7" y1="53.27" x2="211.86" y2="58.77" xlink:href="#linear-gradient"/><linearGradient id="linear-gradient-9" x1="189.64" y1="42.89" x2="200.39" y2="27.89" xlink:href="#linear-gradient"/><linearGradient id="linear-gradient-10" x1="195.59" y1="31.29" x2="207.42" y2="29.46" xlink:href="#linear-gradient"/><linearGradient id="linear-gradient-11" x1="226.04" y1="49.21" x2="220.71" y2="45.54" xlink:href="#linear-gradient"/><linearGradient id="linear-gradient-12" x1="201.07" y1="37.19" x2="190.32" y2="55.81" xlink:href="#linear-gradient"/><linearGradient id="linear-gradient-13" x1="212.35" y1="49.5" x2="204.03" y2="63.9" xlink:href="#linear-gradient"/><linearGradient id="linear-gradient-14" x1="210.67" y1="39.06" x2="204.84" y2="34.23" xlink:href="#linear-gradient"/><linearGradient id="linear-gradient-15" x1="216.74" y1="47.43" x2="214.24" y2="41.1" xlink:href="#linear-gradient"/><linearGradient id="linear-gradient-16" x1="203.01" y1="30.83" x2="200.88" y2="34.52" xlink:href="#linear-gradient"/><linearGradient id="linear-gradient-17" x1="220.76" y1="44.31" x2="220.6" y2="49.97" xlink:href="#linear-gradient"/><linearGradient id="linear-gradient-18" x1="228.25" y1="51.79" x2="224.75" y2="55.13" xlink:href="#linear-gradient"/><linearGradient id="linear-gradient-19" x1="196.77" y1="25.21" x2="194.44" y2="29.25" xlink:href="#linear-gradient"/><linearGradient id="linear-gradient-20" x1="194.94" y1="29.11" x2="188.01" y2="41.11" xlink:href="#linear-gradient"/><linearGradient id="linear-gradient-21" x1="222.56" y1="53.94" x2="217.68" y2="62.39" xlink:href="#linear-gradient"/><linearGradient id="linear-gradient-22" x1="221.69" y1="41.76" x2="216.66" y2="38.43" xlink:href="#linear-gradient"/><linearGradient id="linear-gradient-23" x1="207.08" y1="29.78" x2="210.94" y2="33.83" xlink:href="#linear-gradient"/><linearGradient id="linear-gradient-24" x1="194.75" y1="24.66" x2="193.09" y2="27.53" xlink:href="#linear-gradient"/><linearGradient id="linear-gradient-25" x1="229.6" y1="52.77" x2="227.65" y2="56.15" xlink:href="#linear-gradient"/><linearGradient id="linear-gradient-26" x1="225.63" y1="43.82" x2="224.3" y2="46.12" xlink:href="#linear-gradient"/><linearGradient id="linear-gradient-27" x1="204.06" y1="27.04" x2="203.49" y2="28.04" xlink:href="#linear-gradient"/><linearGradient id="linear-gradient-28" x1="196.71" y1="30.84" x2="196.36" y2="31.44" xlink:href="#linear-gradient"/><linearGradient id="linear-gradient-29" x1="218.63" y1="48.59" x2="218.25" y2="49.25" xlink:href="#linear-gradient"/><linearGradient id="linear-gradient-30" x1="205.04" y1="68.82" x2="209.5" y2="68.82" xlink:href="#linear-gradient"/><linearGradient id="linear-gradient-31" x1="201.09" y1="62.01" x2="202.75" y2="62.01" xlink:href="#linear-gradient"/><linearGradient id="linear-gradient-32" x1="303.83" y1="27.93" x2="303.83" y2="223.29" gradientUnits="userSpaceOnUse"><stop offset="0" stop-color="#231f20"/><stop offset="0.17" stop-color="#282426"/><stop offset="0.39" stop-color="#363435"/><stop offset="0.51" stop-color="#414042"/><stop offset="0.63" stop-color="#363436"/><stop offset="0.84" stop-color="#282526"/><stop offset="1" stop-color="#231f20"/></linearGradient><linearGradient id="linear-gradient-33" x1="446.38" y1="27.77" x2="446.38" y2="176.02" xlink:href="#linear-gradient-32"/><linearGradient id="linear-gradient-34" x1="600.34" y1="31.78" x2="600.34" y2="174.46" xlink:href="#linear-gradient-32"/><linearGradient id="linear-gradient-35" x1="49.33" y1="23.78" x2="49.33" y2="170.79" xlink:href="#linear-gradient-32"/><linearGradient id="linear-gradient-36" x1="159.71" y1="25.03" x2="159.71" y2="182.67" xlink:href="#linear-gradient-32"/></defs><title>Asset 1</title><g id="Layer_2" data-name="Layer 2"><g id="Layer_1-2" data-name="Layer 1"><path class="cls-1" d="M191.58,24.62c.4,5,21,20.82,21,20.82S191.06,28.56,188,29s-20.83,21-20.83,21,14.7-20.7,14.39-24.75S157.8.77,157.8.77,183,20.57,187.57,19.53,208,0,208,0,191.18,19.62,191.58,24.62Z"/><path class="cls-2" d="M230,58.17l-4.66.2L197,59.71c-1.32.06-1.66-.22-1.89-1.52l-4.29-24.57q-.68-3.88-1.35-7.76c0-.15,0-.3,0-.54a5.93,5.93,0,0,1,.67,0q6.7.62,13.4,1.26a1.79,1.79,0,0,1,.89.36q6.63,5.26,13.23,10.54,3.68,2.93,7.39,5.83a2.8,2.8,0,0,1,1,1.53c1.21,4.19,2.46,8.37,3.69,12.55C229.84,57.6,229.88,57.84,230,58.17ZM201.91,36l-4.43,17.12.19.11,11.9-11.08Zm-.53,20,.16.15,15.61-7.83a66.53,66.53,0,0,0-7.35-6Zm-4.18-3.65.22,0c1.39-5.39,2.78-10.78,4.14-16.17a1,1,0,0,0-.3-.76c-1-.86-2-1.69-3-2.5-.72-.57-1.47-1.11-2.39-1.8Zm4.85,3.87.05.16,21-3.31c-.29-.28-.42-.44-.58-.56-1.59-1.2-3.19-2.38-4.77-3.59a.9.9,0,0,0-1.1-.08c-3.48,1.75-7,3.47-10.46,5.22C204.83,54.82,203.44,55.56,202.05,56.28Zm16.44-14.6c-1.13-1.91-2.17-3.63-3.17-5.37a2,2,0,0,0-1.32-1c-1.3-.35-2.58-.77-3.88-1.15l-1.65-.46a2.53,2.53,0,0,0,0,.46c.53,2.33,1.07,4.66,1.58,7a.63.63,0,0,0,.74.56c1.17,0,2.34,0,3.51,0ZM196,58.87l.18.13c1.49-.77,3-1.53,4.46-2.31a1.05,1.05,0,0,0,.35-.39l6.69-11c.38-.62.74-1.26,1.11-1.89-3.48,3-6.82,6.1-10.14,9.21a4.9,4.9,0,0,0-1.4,1.58C196.73,55.74,196.42,57.32,196,58.87Zm31.11-2.53c-1.07-.86-2.28-1.86-3.53-2.81a1,1,0,0,0-.72,0q-8.34,2.51-16.67,5a3.21,3.21,0,0,0-.4.18l.06.28Zm-33.27-7.59.21,0s.08-.07.09-.11q.71-8.58,1.4-17.15a1,1,0,0,0-.19-.78c-1.19-1-2.42-2-3.54-2.87ZM208,33.26c-.27-1.28-.49-2.4-.77-3.5-.05-.21-.36-.4-.59-.5-1.69-.72-3.38-1.41-5.07-2.11s-1.61-.66-2.75.59c-.16.17-.34.31-.48.49-.57.7-1.13,1.4-1.77,2.2Zm15.71,19.33c1.05-1.31,2-2.47,2.91-3.67a.85.85,0,0,0-.08-.73q-1.76-3-3.58-5.94c-.11-.18-.32-.42-.48-.41-1.13,0-2.26.1-3.54.17Zm-27.9-18.44-.18,0c0,.27-.07.55-.09.82q-.58,7-1.14,13.95a14.42,14.42,0,0,0-.11,2.74c.18,1.59.52,3.17.8,4.75.14.8.31,1.6.47,2.4h.21c.37-1.39.76-2.78,1.08-4.19a6.13,6.13,0,0,0,.15-1.73c-.23-4-.5-7.94-.75-11.91Q196,37.58,195.81,34.15Zm.44,25.12.06.17a4.94,4.94,0,0,0,.52,0c2-.1,4-.18,6-.31a6.7,6.7,0,0,0,1.49-.29l13.3-4,2.58-.79c-.12-.15-.21-.16-.3-.15-5.14.81-10.26,1.7-15.41,2.39a18.94,18.94,0,0,0-7.37,2.51C196.81,59,196.53,59.12,196.25,59.27Zm13.36-17.94.2-.13-1.73-7.6-5.61,2Zm1.15.6-.07.23,6.94,5.57.92-5.78Zm-3.37-8.37c0-.07,0-.14,0-.21l-10.3-2.55L197,31c1.31,1.13,2.65,2.23,3.92,3.4a2.28,2.28,0,0,0,2.8.48C204.89,34.37,206.16,34,207.39,33.56Zm15.89,18.7-4.37-9.7-.19,0c-.27,1.65-.55,3.3-.8,4.95a.67.67,0,0,0,.19.53C219.77,49.45,221.46,50.8,223.28,52.26Zm4.62,3.79-.91-7c-1,1.29-1.95,2.41-2.83,3.55a.46.46,0,0,0,0,.45C225.38,54,226.58,55,227.9,56.05ZM199.29,26.8l-.12-.21-6.84.37-.06.24c1.18.95,2.35,1.9,3.55,2.83a.54.54,0,0,0,.52,0C197.34,29,198.31,27.89,199.29,26.8ZM192.9,43.93l.24,0c-.08-.57-.18-1.13-.25-1.69q-.79-7.06-1.57-14.13a1.85,1.85,0,0,0-1.5-1.81Zm36,14,.11-.32c-.57-.24-1.16-.73-1.71-.69-4.5.39-9,.89-13.47,1.34-.82.08-1.65.1-2.48.14l0,.3Zm-13-21.64-.15.12c.75,1.28,1.59,2.53,2.24,3.86a2.09,2.09,0,0,0,2.63,1.36,12.1,12.1,0,0,1,1.76-.13Zm-8.11-6.41-.16.1c.19.89.41,1.77.57,2.67a.92.92,0,0,0,.75.83c1.47.41,2.93.87,4.39,1.3a6.34,6.34,0,0,0,.68.12Zm-10.25-3.49c0-.06,0-.13,0-.19l-7-.64-.11.33c.54.27,1.07.76,1.61.76C193.79,26.69,195.64,26.53,197.49,26.43Zm31.95,30.7-1.59-5.38c.08,1.14.19,2.45.25,3.75A1.79,1.79,0,0,0,229.43,57.13Zm-3.1-9.84c-.32-1.84-.51-3.77-2.76-4.59ZM206.1,28.75a4.85,4.85,0,0,0-4.89-2Zm-8.18,3.59.08-.1-2.86-2.3-.08.1Zm19,15.28-.09.15,3,2.43.11-.14Z"/><path class="cls-3" d="M201.91,36l7.66,6.15-11.9,11.08-.19-.11Z"/><path class="cls-4" d="M201.38,56.07l8.41-13.67a66.53,66.53,0,0,1,7.35,6l-15.61,7.83Z"/><path class="cls-5" d="M197.2,52.42l-1.32-21.21c.93.69,1.68,1.22,2.39,1.8,1,.81,2,1.64,3,2.5a1,1,0,0,1,.3.76c-1.36,5.4-2.75,10.78-4.14,16.17Z"/><path class="cls-6" d="M202.05,56.28c1.39-.72,2.78-1.46,4.18-2.16,3.48-1.75,7-3.47,10.46-5.22a.9.9,0,0,1,1.1.08c1.58,1.21,3.18,2.39,4.77,3.59.16.12.29.27.58.56l-21,3.31Z"/><path class="cls-7" d="M218.49,41.68l-4.19,0c-1.17,0-2.34,0-3.51,0a.63.63,0,0,1-.74-.56c-.51-2.34-1.05-4.67-1.58-7a2.53,2.53,0,0,1,0-.46l1.65.46c1.29.38,2.58.8,3.88,1.15a2,2,0,0,1,1.32,1C216.32,38.05,217.36,39.77,218.49,41.68Z"/><path class="cls-8" d="M196,58.87c.4-1.55.72-3.13,1.25-4.62a4.9,4.9,0,0,1,1.4-1.58c3.32-3.11,6.66-6.21,10.14-9.21-.37.63-.73,1.26-1.11,1.89L201,56.3a1.05,1.05,0,0,1-.35.39c-1.48.78-3,1.54-4.46,2.31Z"/><path class="cls-9" d="M227.12,56.34,205.86,59l-.06-.28a3.21,3.21,0,0,1,.4-.18q8.33-2.53,16.67-5a1,1,0,0,1,.72,0C224.84,54.48,226.06,55.48,227.12,56.34Z"/><path class="cls-10" d="M193.85,48.75l-2-20.93c1.12.9,2.35,1.86,3.54,2.87a1,1,0,0,1,.19.78q-.68,8.58-1.4,17.15s-.06.07-.09.11Z"/><path class="cls-11" d="M208,33.26l-11.45-2.84c.64-.8,1.2-1.5,1.77-2.2.14-.18.33-.32.48-.49,1.14-1.25,1.14-1.25,2.75-.59s3.39,1.39,5.07,2.11c.23.1.54.3.59.5C207.52,30.86,207.73,32,208,33.26Z"/><path class="cls-12" d="M223.71,52.59,218.95,42c1.27-.07,2.41-.14,3.54-.17.16,0,.38.24.48.41q1.81,3,3.58,5.94a.85.85,0,0,1,.08.73C225.72,50.12,224.76,51.28,223.71,52.59Z"/><path class="cls-13" d="M195.81,34.15q.22,3.42.43,6.85c.25,4,.52,7.94.75,11.91a6.13,6.13,0,0,1-.15,1.73c-.33,1.41-.72,2.79-1.08,4.19h-.21c-.16-.8-.32-1.6-.47-2.4-.28-1.58-.62-3.16-.8-4.75a14.42,14.42,0,0,1,.11-2.74Q195,42,195.53,35c0-.27.06-.55.09-.82Z"/><path class="cls-14" d="M196.25,59.27c.28-.15.56-.3.84-.46a18.94,18.94,0,0,1,7.37-2.51c5.15-.7,10.28-1.59,15.41-2.39.09,0,.18,0,.3.15l-2.58.79-13.3,4a6.7,6.7,0,0,1-1.49.29c-2,.13-4,.21-6,.31a4.94,4.94,0,0,1-.52,0Z"/><path class="cls-15" d="M209.61,41.33l-7.15-5.74,5.61-2,1.73,7.6Z"/><path class="cls-16" d="M210.76,41.93l7.78,0-.92,5.78-6.94-5.57Z"/><path class="cls-17" d="M207.39,33.56c-1.23.44-2.5.81-3.68,1.35a2.28,2.28,0,0,1-2.8-.48c-1.27-1.17-2.61-2.27-3.92-3.4l.09-.22,10.3,2.55C207.38,33.42,207.38,33.49,207.39,33.56Z"/><path class="cls-18" d="M223.28,52.26c-1.82-1.46-3.51-2.81-5.18-4.18a.67.67,0,0,1-.19-.53c.25-1.65.53-3.3.8-4.95l.19,0Z"/><path class="cls-19" d="M227.9,56.05c-1.33-1.07-2.53-2-3.71-3a.46.46,0,0,1,0-.45c.88-1.13,1.79-2.25,2.83-3.55Z"/><path class="cls-20" d="M199.29,26.8c-1,1.08-2,2.18-3,3.24a.54.54,0,0,1-.52,0c-1.19-.93-2.37-1.89-3.55-2.83l.06-.24,6.84-.37Z"/><path class="cls-21" d="M192.9,43.93l-3.07-17.66a1.85,1.85,0,0,1,1.5,1.81q.79,7.06,1.57,14.13c.06.57.16,1.13.25,1.69Z"/><path class="cls-22" d="M228.86,58l-17.51.77,0-.3c.83,0,1.65-.06,2.48-.14,4.49-.45,9-.95,13.47-1.34.55,0,1.14.44,1.71.69Z"/><path class="cls-23" d="M215.85,36.33l6.47,5.2a12.1,12.1,0,0,0-1.76.13,2.09,2.09,0,0,1-2.62-1.36c-.65-1.33-1.49-2.58-2.24-3.86Z"/><path class="cls-24" d="M207.74,29.92l6.23,5a6.34,6.34,0,0,1-.68-.12c-1.47-.43-2.92-.89-4.39-1.3a.92.92,0,0,1-.75-.83c-.16-.89-.37-1.78-.57-2.67Z"/><path class="cls-25" d="M197.49,26.43c-1.85.1-3.69.26-5.54.26-.54,0-1.07-.5-1.61-.76l.11-.33,7,.64C197.49,26.3,197.49,26.37,197.49,26.43Z"/><path class="cls-26" d="M229.43,57.13a1.79,1.79,0,0,1-1.35-1.63c-.06-1.31-.17-2.62-.25-3.75Z"/><path class="cls-27" d="M226.33,47.29l-2.76-4.59C225.82,43.52,226,45.46,226.33,47.29Z"/><path class="cls-28" d="M206.1,28.75l-4.89-2A4.85,4.85,0,0,1,206.1,28.75Z"/><path class="cls-29" d="M197.93,32.34,195.06,30l.08-.1,2.86,2.3Z"/><path class="cls-30" d="M217,47.63l3,2.44-.11.14-3-2.43Z"/><path class="cls-31" d="M209.5,72.11c-.49-1.9-2.18-4.18-4.45-6.56q2.37,3.29,4.45,6.56Z"/><path class="cls-32" d="M202.75,62.59l-1.66-1.3.45,1.44Z"/><path class="cls-33" d="M312.21,103.54c16.92,22.61,33.44,45.23,50.18,68.15a16.86,16.86,0,0,1-1.69.23c-7.66.07-15.33.08-23,.23a4.85,4.85,0,0,1-4.46-2.32q-8.77-12.28-17.69-24.47c-7.21-9.9-14.47-19.76-21.68-29.66-2.08-2.85-4.12-5.74-6.07-8.68a3.94,3.94,0,0,0-3.71-2c-4.21.08-8.42,0-12.63,0a13.18,13.18,0,0,0-1.61.23c-.37,5.45-.09,10.91-.17,16.35s-.05,11.12-.06,16.68,0,11,0,16.46-.52,62.63-.56,68.41c-8.12.18-16,.09-23.69,0-.22-.45,0-52.36,0-52.55q0-7.1,0-14.2c0-42.73,0-85.46,0-128.51,1.57,0,2.9,0,4.22,0q15,.27,30,.56c6.61.14,13.22.23,19.82.51,9.15.39,18.06,2,26.43,5.93a37.7,37.7,0,0,1,14.74,11.53A32.61,32.61,0,0,1,347,67.59a31.33,31.33,0,0,1-2.85,12.65A35,35,0,0,1,334,93a52.19,52.19,0,0,1-19.43,9.6c-.51.13-1,.29-1.5.46A6.09,6.09,0,0,0,312.21,103.54Zm-42.43-6.29c.92.09,1.36.16,1.81.17q6.88.05,13.75.09a41.67,41.67,0,0,0,19.31-4.59c8.48-4.32,14.13-10.93,15.64-20.46,1.83-11.45-1.58-21.11-10.84-28.35-5.46-4.27-11.91-6-18.72-6.21-6.23-.24-12.47-.23-18.7-.31-.65,0-1.3.11-2.2.19C269.77,57.67,269.7,77.38,269.78,97.26Z"/><path class="cls-34" d="M493.54,109.43l-26-.26c-.6-2.83-.11-5.49,0-8.37,1.14-.09,2.16-.24,3.18-.24q15.55.06,31.11.18c4.73,0,9.46.15,14.2.24.51,0,1,.11,1.84.2,0,1.23,0,2.4,0,3.58-.43,10.21-.94,20.42-1.31,30.64-.3,8.41-.47,16.83-.63,25.25a3.26,3.26,0,0,1-2,3.31A106.17,106.17,0,0,1,483.15,174a169.62,169.62,0,0,1-31,2,89.37,89.37,0,0,1-32.66-6.87,73.69,73.69,0,0,1-28.34-21A67.79,67.79,0,0,1,376.94,120a70.19,70.19,0,0,1,1.25-38,80.71,80.71,0,0,1,11.7-23.24,72.59,72.59,0,0,1,22.84-20.09A80.3,80.3,0,0,1,444,28.4a97.92,97.92,0,0,1,19.35-.28A60.1,60.1,0,0,1,479.7,32a69.27,69.27,0,0,1,19.89,11.3,70.89,70.89,0,0,1,17.74,21.34,3,3,0,0,1,.1.72c-3.12,2.32-6.51,4.46-10.08,6.67a19.73,19.73,0,0,1-1.15-1.77A76.82,76.82,0,0,0,495.67,54c-9.17-10.62-20.62-16.22-34.85-15.77-11.15.35-21.52,3.17-30.9,9.26a53,53,0,0,0-12.09,11A63.41,63.41,0,0,0,404.48,88a116.36,116.36,0,0,0-1.22,11.64,83.26,83.26,0,0,0,.5,16,61.48,61.48,0,0,0,4.77,17.32A58,58,0,0,0,419.62,150a55.36,55.36,0,0,0,17.54,12.43,60.27,60.27,0,0,0,25.38,5.34,48.42,48.42,0,0,0,27.49-8,4.3,4.3,0,0,0,2.19-3.82c.38-13.07.88-26.14,1.31-39.21C493.6,114.45,493.54,112.14,493.54,109.43Z"/><path class="cls-35" d="M548.13,173.32c1.67-47.19.11-94.32,1.77-141.5.94-.06,5,0,5.75,0l50.72.28c6.84,0,13.67,0,20.51.12,7.81.09,15.62.25,23.44.39,2.13,0,2.29.2,2.22,2.38s-.21,4.33-.33,6.82c-12.64.24-25.15-.3-37.66-.28s-26.37-.64-39-.57c-.56,17,.37,34.09-.18,51,1,.09,1.78.22,2.58.23q18.93.17,37.85.31c2.55,0,5.11,0,7.66,0,2.1,0,2.32.27,2.28,2.37s-.15,4.48-.24,7c-1,.08-1.75.2-2.54.19-7.36-.06-14.73-.14-22.09-.2q-11.72-.09-23.44-.15c-.67,0-1.34.07-2.12.12a13.6,13.6,0,0,0-.57,4.44c-.23,5.48.32,56.07.32,58.25,8.18.36,13.67.06,21.75.15s16.37.13,24.56.24,16.21.28,24.29.42c.53,1.53.45,5.55-.18,8.94-.73.07-1.53.2-2.32.2-12.62-.13-25.24-.29-37.87-.41-12-.11-24-.16-36.07-.26-6.46-.06-12.92-.17-19.37-.27C549.4,173.5,549,173.41,548.13,173.32Z"/><path class="cls-36" d="M79.71,87.11v9.4a23.42,23.42,0,0,1-2.51.25q-7,0-14-.15l-33.57-.51c-.81,0-1.62.09-2.69.15-.08,1.45-.23,2.78-.21,4.1.21,12.85.42,25.69.7,38.53.21,9.54.52,19.08.77,28.62,0,.9,0,1.79,0,2.88a10.26,10.26,0,0,1-1.74.31q-10.71.07-21.42.09c-.66,0-1.33-.12-2.28-.21-.09-1.38-.23-2.7-.26-4-.35-14.87-.72-29.74-1-44.62-.21-11.27-.27-22.54-.45-33.81C.87,74.08.6,60,.35,46Q.17,36,0,25.92c0-.52.08-1,.14-1.8a22.87,22.87,0,0,1,2.61-.26c9.39.1,83.47-.2,94.29,0,2.17,0,1.52,1.61,1.6,3.79s0,3.72,0,6.29C92.42,34.26,32,34,25.77,34a21.85,21.85,0,0,0-.23,2.43q.28,15.33.6,30.65c.12,5.56.29,11.12.44,16.67,0,.74.09,1.48.15,2.5,8.85.54,17.62.23,26.37.42S70.64,86.8,79.71,87.11Z"/><path class="cls-37" d="M224.12,57.85S200.21,60,199.87,59s11.44-17.9,11.44-17.9c.13-.18-.39-.79-.39-.79-.35-.26-.74-.32-.87-.14,0,0-13.14,14.94-14.17,14.82s-5.53-24.18-5.53-24.18c-.11-.57-.19-3.1-.41-4.5-.09-.54,1.88-.93,1.88-.93-.42.08-3.19-1-3.06.22,0,0,3.13,30.29,2.37,31.28a1.06,1.06,0,0,1-1.06.24,67.34,67.34,0,0,0-92,92.25,63.56,63.56,0,0,1-3.79-8.83c.37.92.76,1.83,1.17,2.73A62.93,62.93,0,0,1,92,132c-.2-1-.39-2.09-.55-3.15a63.09,63.09,0,0,1,16.65-52.74A63.71,63.71,0,0,1,147,57.51c32.15-2.68,61.33,20.63,66.14,53.64,4.51,31-13.94,59.84-42.29,68.78a62.35,62.35,0,0,1-15,2.29l-.85,0a67,67,0,0,0,6.85-.23l-.47.08c-1.89.28-3.77.45-5.65.54h.5A67.33,67.33,0,0,0,200,64.16a1.4,1.4,0,0,1-.28-.79C199.78,62.69,230,59,230,59c1.63-.29-.58-3-.58-3s.29,1.5-.5,1.55C227.09,57.71,224.46,57.82,224.12,57.85Z"/></g></g></svg>